<svg xmlns="http://www.w3.org/2000/svg" width="1200" height="555" viewBox="0 0 1600 740">
  <title>CachePoisoning-thinner</title>
  <g>
    <polygon points="297.11 528.41 819.67 528.41 819.67 539.98 842.46 526.83 819.67 513.68 819.67 525.24 297.11 525.24 297.11 528.41" fill="#1d81c4" />
    <polygon points="842.23 558.18 319.9 558.18 319.9 546.61 297.11 559.77 319.9 572.92 319.9 561.35 842.23 561.35 842.23 558.18" fill="#db1d1d" />
    <circle cx="1464.96" cy="440.38" r="43.2" fill="#159c80" />
    <path d="M1465.22,395.15a45,45,0,1,0-.06,90h0a45,45,0,1,0,0-90Zm32.4,17.06a23.18,23.18,0,0,1-6.19,6,32.63,32.63,0,0,1-5.66,3.06,60.32,60.32,0,0,0-7-14.15,59.14,59.14,0,0,0-7.65-9.33,42.56,42.56,0,0,1,24.3,12.14C1496.22,410.65,1496.93,411.42,1497.62,412.21Zm-30.14,70.67-1.21.05V455.37a54.9,54.9,0,0,1,17.42,2.9,58.2,58.2,0,0,1-6.7,13.65A53.12,53.12,0,0,1,1467.48,482.88Zm-20.82-24.63a53.25,53.25,0,0,1,17.42-2.88l0,27.56-1.2-.05A57.79,57.79,0,0,1,1446.66,458.25Zm16.24-60.84,1.21-.05v27.57a55.21,55.21,0,0,1-17.42-2.91,58.2,58.2,0,0,1,6.7-13.65A53.43,53.43,0,0,1,1462.9,397.41ZM1483.72,422a54.91,54.91,0,0,1-17.42,2.89V397.36l1.21.05A57.79,57.79,0,0,1,1483.72,422Zm-17.42,5.09a56,56,0,0,0,18.09-2.95,56.59,56.59,0,0,1,2.26,14.88h-20.36Zm-2.2,0V439h-20.36a56.79,56.79,0,0,1,2.28-14.87A56.17,56.17,0,0,0,1464.1,427.13ZM1441.53,439h-19.12a42.44,42.44,0,0,1,8.92-25.07c1.61,2.23,5.35,6.36,12.62,9.41A58.6,58.6,0,0,0,1441.53,439Zm0,2.2a59.09,59.09,0,0,0,2.41,15.68c-7.27,3-11,7.17-12.62,9.39a42.36,42.36,0,0,1-8.9-25.08Zm2.21,0h20.36v11.91a56.28,56.28,0,0,0-18.09,2.95A56.51,56.51,0,0,1,1443.73,441.24Zm22.55,11.92V441.25h20.36a56.94,56.94,0,0,1-2.28,14.88A55.87,55.87,0,0,0,1466.28,453.16Zm22.57-11.9H1508a42.36,42.36,0,0,1-8.93,25.07c-1.6-2.23-5.34-6.36-12.61-9.41A58.6,58.6,0,0,0,1488.85,441.26Zm0-2.2a58.77,58.77,0,0,0-2.4-15.68c7.27-3,11-7.17,12.62-9.39a42.38,42.38,0,0,1,8.9,25.08Zm-53.91-29.19a42.45,42.45,0,0,1,24.31-12.11,59,59,0,0,0-7.66,9.32,60.41,60.41,0,0,0-7,14.14,33.28,33.28,0,0,1-5.65-3.07,23.16,23.16,0,0,1-6.19-6C1433.48,411.38,1434.2,410.61,1434.94,409.87Zm-2.18,58.21c1.15-1.7,4.56-5.91,11.85-9a60,60,0,0,0,7,14.14,59.14,59.14,0,0,0,7.65,9.33,42.47,42.47,0,0,1-24.3-12.14C1434.16,469.64,1433.45,468.87,1432.76,468.08Zm62.68,2.35a42.57,42.57,0,0,1-24.31,12.11,60,60,0,0,0,7.66-9.32,60.7,60.7,0,0,0,7-14.15,33.28,33.28,0,0,1,5.65,3.07,22.9,22.9,0,0,1,6.18,6C1496.9,468.91,1496.18,469.68,1495.44,470.43Z" fill="#fff" />
    <g>
      <path d="M232,484.42a39.11,39.11,0,1,1,39.11-39.11A39.15,39.15,0,0,1,232,484.42Zm0-76.84a37.73,37.73,0,1,0,37.73,37.73A37.77,37.77,0,0,0,232,407.58Z" fill="#d60000" />
      <circle cx="217.11" cy="434.1" r="3.46" fill="#d60000" />
      <circle cx="246.83" cy="434.1" r="3.46" fill="#d60000" />
    </g>
    <polygon points="297.11 640.27 819.67 640.27 819.67 651.84 842.46 638.68 819.67 625.53 819.67 637.1 297.11 637.1 297.11 640.27" fill="#1d81c4" />
    <polygon points="842.23 668.7 319.9 668.7 319.9 657.13 297.11 670.29 319.9 683.44 319.9 671.88 842.23 671.88 842.23 668.7" fill="#db1d1d" />
    <path d="M202.66,399.45c-8,3.39-6.34,15.75-.85,19.75,2-.7,6.54-4.47,9.4-7C207.7,410.44,199.71,406.86,202.66,399.45Z" fill="#d60000" />
    <path d="M260,399.45c8.06,3.39,6.34,15.75.85,19.75-2-.7-6.54-4.47-9.4-7C255,410.44,263,406.86,260,399.45Z" fill="#d60000" />
    <path d="M246.83,451.81c2.25,2,7.09,4.8,11.69,3.84" fill="none" stroke="#d60000" stroke-miterlimit="10" stroke-width="2" />
    <path d="M253.35,455.55a7.31,7.31,0,0,1-1.52-.16A21.28,21.28,0,0,1,220.94,466a7.32,7.32,0,0,1-1.63,1.41A23.35,23.35,0,0,0,254,455.52C253.79,455.54,253.57,455.55,253.35,455.55Z" fill="#d60000" />
    <g>
      <line x1="842.45" y1="77.89" x2="842.45" y2="80.89" fill="none" stroke="#4c5054" stroke-miterlimit="10" stroke-width="2" />
      <line x1="842.45" y1="86.93" x2="842.45" y2="482.66" fill="none" stroke="#4c5054" stroke-miterlimit="10" stroke-width="2" stroke-dasharray="6.04 6.04" />
      <line x1="842.45" y1="485.68" x2="842.45" y2="488.68" fill="none" stroke="#4c5054" stroke-miterlimit="10" stroke-width="2" />
    </g>
    <polygon points="285.54 426.66 1376.97 426.66 1376.97 438.23 1399.75 425.08 1376.97 411.92 1376.97 423.49 285.54 423.49 285.54 426.66" fill="#db1d1d" />
    <polygon points="1399.75 452.17 308.55 452.17 308.55 440.6 285.76 453.75 308.55 466.91 308.55 455.34 1399.75 455.34 1399.75 452.17" fill="#db1d1d" />
    <circle cx="902.9" cy="543.38" r="43.2" fill="#bfe2d9" />
    <path d="M903.15,498.15a45,45,0,0,0,0,90h0a45,45,0,1,0,0-90Zm32.4,17.06a22.91,22.91,0,0,1-6.18,6,34.44,34.44,0,0,1-5.66,3.06,60.21,60.21,0,0,0-7-14.16,58.5,58.5,0,0,0-7.65-9.32,42.48,42.48,0,0,1,24.3,12.13C934.15,513.65,934.87,514.42,935.55,515.21Zm-30.14,70.68-1.2,0V558.37a54.84,54.84,0,0,1,17.41,2.9,58.31,58.31,0,0,1-6.69,13.66A53.32,53.32,0,0,1,905.41,585.89ZM884.6,561.26A52.91,52.91,0,0,1,902,558.37l0,27.56-1.21,0A57.75,57.75,0,0,1,884.6,561.26Zm16.24-60.85,1.21,0,0,27.56a54.84,54.84,0,0,1-17.41-2.9,58.3,58.3,0,0,1,6.7-13.66A53.75,53.75,0,0,1,900.84,500.41Zm20.81,24.64a55.06,55.06,0,0,1-17.41,2.88V500.37l1.21.05A57.72,57.72,0,0,1,921.65,525.05Zm-17.41,5.08a56,56,0,0,0,18.09-3,56.59,56.59,0,0,1,2.26,14.88H904.23Zm-2.21,0v11.92H881.67A56.87,56.87,0,0,1,884,527.16,55.83,55.83,0,0,0,902,530.13ZM879.46,542l-19.11,0A42.39,42.39,0,0,1,869.27,517c1.6,2.22,5.35,6.35,12.62,9.4A58.66,58.66,0,0,0,879.46,542Zm0,2.2a59,59,0,0,0,2.41,15.67c-7.27,3-11,7.17-12.63,9.39a42.39,42.39,0,0,1-8.89-25.07Zm2.21,0H902v11.92a56,56,0,0,0-18.09,3A56.18,56.18,0,0,1,881.67,544.24Zm22.55,11.93V544.25h20.36a56.87,56.87,0,0,1-2.28,14.88A55.9,55.9,0,0,0,904.22,556.17Zm22.57-11.91,19.12,0A42.47,42.47,0,0,1,937,569.34c-1.6-2.22-5.34-6.35-12.61-9.4A59.08,59.08,0,0,0,926.79,544.26Zm0-2.2a58.63,58.63,0,0,0-2.4-15.67c7.27-3,11-7.17,12.62-9.39a42.33,42.33,0,0,1,8.9,25.07Zm-53.91-29.19a42.51,42.51,0,0,1,24.31-12.11,59.48,59.48,0,0,0-7.66,9.32,60.41,60.41,0,0,0-7,14.14,32.19,32.19,0,0,1-5.65-3.06,23.16,23.16,0,0,1-6.19-6C871.42,514.39,872.13,513.62,872.88,512.87Zm-2.18,58.21c1.15-1.7,4.56-5.9,11.85-9a60.43,60.43,0,0,0,6.94,14.14,58.75,58.75,0,0,0,7.65,9.33,42.42,42.42,0,0,1-24.29-12.13C872.1,572.65,871.38,571.88,870.7,571.08Zm62.67,2.35a42.45,42.45,0,0,1-24.31,12.11,58.37,58.37,0,0,0,7.66-9.32,60.39,60.39,0,0,0,7-14.14,32.54,32.54,0,0,1,5.65,3.06,23.07,23.07,0,0,1,6.18,6C934.84,571.91,934.12,572.68,933.37,573.43Z" fill="#fff" />
    <circle cx="902.9" cy="655.53" r="43.2" fill="#bfe2d9" />
    <path d="M903.15,610.3a45,45,0,0,0,0,90h0a45,45,0,1,0,0-90Zm32.4,17.06a22.92,22.92,0,0,1-6.18,6,33,33,0,0,1-5.66,3.06,60.32,60.32,0,0,0-7-14.15,59.14,59.14,0,0,0-7.65-9.33,42.56,42.56,0,0,1,24.3,12.14C934.15,625.8,934.87,626.57,935.55,627.36ZM905.41,698l-1.2.05V670.52a54.84,54.84,0,0,1,17.41,2.9,58.22,58.22,0,0,1-6.69,13.65A52.71,52.71,0,0,1,905.41,698ZM884.6,673.4A53.44,53.44,0,0,1,902,670.51l0,27.57-1.21-.05A57.81,57.81,0,0,1,884.6,673.4Zm16.24-60.84,1.21,0,0,27.56a54.84,54.84,0,0,1-17.41-2.9,58.2,58.2,0,0,1,6.7-13.65A53.43,53.43,0,0,1,900.84,612.56Zm20.81,24.63a54.81,54.81,0,0,1-17.41,2.89V612.51l1.21,0A57.72,57.72,0,0,1,921.65,637.19Zm-17.41,5.09a56,56,0,0,0,18.09-2.95,56.59,56.59,0,0,1,2.26,14.88l-20.36,0Zm-2.21,0v11.91H881.67A56.79,56.79,0,0,1,884,639.31,56.1,56.1,0,0,0,902,642.28Zm-22.57,11.9H860.35a42.44,42.44,0,0,1,8.92-25.07c1.6,2.23,5.35,6.36,12.62,9.41A58.59,58.59,0,0,0,879.46,654.18Zm0,2.2a59.09,59.09,0,0,0,2.41,15.68c-7.27,3-11,7.17-12.63,9.39a42.42,42.42,0,0,1-8.89-25.08Zm2.21,0H902v11.91a56,56,0,0,0-18.09,3A56.16,56.16,0,0,1,881.67,656.39Zm22.55,11.92V656.4h20.36a56.79,56.79,0,0,1-2.28,14.87A56.17,56.17,0,0,0,904.22,668.31Zm22.57-11.9h19.12A42.5,42.5,0,0,1,937,681.49c-1.6-2.23-5.34-6.36-12.61-9.41A59,59,0,0,0,926.79,656.41Zm0-2.2a58.77,58.77,0,0,0-2.4-15.68c7.27-3,11-7.17,12.62-9.39a42.38,42.38,0,0,1,8.9,25.08ZM872.88,625a42.45,42.45,0,0,1,24.31-12.11,59,59,0,0,0-7.66,9.32,60.41,60.41,0,0,0-7,14.14,32.91,32.91,0,0,1-5.65-3.07,23,23,0,0,1-6.19-6C871.42,626.53,872.13,625.76,872.88,625Zm-2.18,58.21c1.15-1.7,4.56-5.91,11.85-9a60.43,60.43,0,0,0,6.94,14.14,59.7,59.7,0,0,0,7.65,9.33,42.44,42.44,0,0,1-24.29-12.14C872.1,684.79,871.38,684,870.7,683.23Zm62.67,2.35a42.44,42.44,0,0,1-24.31,12.1,58.2,58.2,0,0,0,7.66-9.31,60.68,60.68,0,0,0,7-14.15,33.28,33.28,0,0,1,5.65,3.07,23.07,23.07,0,0,1,6.18,6C934.84,684.06,934.12,684.83,933.37,685.58Z" fill="#fff" />
    <g>
      <line x1="842.45" y1="453.75" x2="842.45" y2="456.75" fill="none" stroke="#d60000" stroke-miterlimit="10" stroke-width="2" />
      <line x1="842.45" y1="462.8" x2="842.45" y2="725.59" fill="none" stroke="#d60000" stroke-miterlimit="10" stroke-width="2" stroke-dasharray="6.04 6.04" />
      <line x1="842.45" y1="728.61" x2="842.45" y2="731.61" fill="none" stroke="#d60000" stroke-miterlimit="10" stroke-width="2" />
    </g>
    <path d="M242.28,542.26a15.82,15.82,0,1,0-14.61,0c-10.4,3.74-18,15.21-18,28.76a35,35,0,0,0,1.35,9.62l.32,1.15H258.6l.33-1.15a35.36,35.36,0,0,0,1.35-9.62C260.28,557.47,252.68,546,242.28,542.26Z" fill="#f63" />
    <path d="M242.28,650.13a15.82,15.82,0,1,0-14.61,0c-10.4,3.73-18,15.2-18,28.76a35,35,0,0,0,1.35,9.62l.32,1.14H258.6l.33-1.14a35.41,35.41,0,0,0,1.35-9.62C260.28,665.33,252.68,653.86,242.28,650.13Z" fill="#70d16d" />
    <circle cx="1464.96" cy="127.83" r="43.2" fill="#159c80" />
    <path d="M1465.22,82.59a45,45,0,1,0-.06,90h0a45,45,0,0,0,0-90Zm32.4,17.07a23.33,23.33,0,0,1-6.19,6,32.63,32.63,0,0,1-5.66,3.06,60.32,60.32,0,0,0-7-14.15,59.14,59.14,0,0,0-7.65-9.33,42.5,42.5,0,0,1,24.3,12.14C1496.22,98.1,1496.93,98.87,1497.62,99.66Zm-30.14,70.67-1.21,0V142.81a55.21,55.21,0,0,1,17.42,2.91,58.2,58.2,0,0,1-6.7,13.65A53.12,53.12,0,0,1,1467.48,170.33Zm-20.82-24.63a53.49,53.49,0,0,1,17.42-2.89l0,27.57-1.2,0A57.79,57.79,0,0,1,1446.66,145.7Zm16.24-60.84,1.21,0v27.56a54.9,54.9,0,0,1-17.42-2.9,58.2,58.2,0,0,1,6.7-13.65A53.12,53.12,0,0,1,1462.9,84.86Zm20.82,24.63a54.88,54.88,0,0,1-17.42,2.88V84.81l1.21,0A57.79,57.79,0,0,1,1483.72,109.49Zm-17.42,5.09a56.28,56.28,0,0,0,18.09-3,56.51,56.51,0,0,1,2.26,14.87h-20.36Zm-2.2,0v11.91h-20.36A56.94,56.94,0,0,1,1446,111.6,55.87,55.87,0,0,0,1464.1,114.58Zm-22.57,11.9h-19.12a42.42,42.42,0,0,1,8.92-25.07c1.61,2.23,5.35,6.36,12.62,9.41A58.6,58.6,0,0,0,1441.53,126.48Zm0,2.2a59.16,59.16,0,0,0,2.41,15.68c-7.27,3-11,7.17-12.62,9.39a42.38,42.38,0,0,1-8.9-25.08Zm2.21,0h20.36v11.92a56,56,0,0,0-18.09,2.95A56.59,56.59,0,0,1,1443.73,128.68Zm22.55,11.93V128.7h20.36a56.79,56.79,0,0,1-2.28,14.87A56.17,56.17,0,0,0,1466.28,140.61Zm22.57-11.9H1508a42.39,42.39,0,0,1-8.93,25.07c-1.6-2.23-5.34-6.36-12.61-9.41A58.6,58.6,0,0,0,1488.85,128.71Zm0-2.2a58.7,58.7,0,0,0-2.4-15.68c7.27-3,11-7.17,12.62-9.39a42.36,42.36,0,0,1,8.9,25.08Zm-53.91-29.2a42.5,42.5,0,0,1,24.31-12.1,59.3,59.3,0,0,0-7.66,9.31,60.7,60.7,0,0,0-7,14.15,33.28,33.28,0,0,1-5.65-3.07,23.16,23.16,0,0,1-6.19-6C1433.48,98.83,1434.2,98.06,1434.94,97.31Zm-2.18,58.22c1.15-1.7,4.56-5.91,11.85-9a60.22,60.22,0,0,0,7,14.14,59.14,59.14,0,0,0,7.65,9.33,42.53,42.53,0,0,1-24.3-12.14C1434.16,157.09,1433.45,156.32,1432.76,155.53Zm62.68,2.34A42.45,42.45,0,0,1,1471.13,170a59,59,0,0,0,7.66-9.32,60.41,60.41,0,0,0,7-14.14,33.28,33.28,0,0,1,5.65,3.07,22.75,22.75,0,0,1,6.18,6C1496.9,156.36,1496.18,157.13,1495.44,157.87Z" fill="#fff" />
    <text transform="translate(34.12 58.18)" font-size="48" fill="#4c5054" font-family="Verdana, Verdana">Time</text>
    <text transform="translate(1371.65 56.21)" font-size="48" fill="#4c5054" font-family="Verdana, Verdana">
      <tspan letter-spacing="-0.05em">W</tspan>
      <tspan x="45.12" y="0">ebsite</tspan>
    </text>
    <polygon points="285.54 216.44 819.34 216.44 819.34 228 842.12 214.85 819.34 201.69 819.34 213.26 285.54 213.26 285.54 216.44" fill="#1d81c4" />
    <circle cx="1464.96" cy="230.95" r="43.2" fill="#159c80" />
    <path d="M1465.22,185.71a45,45,0,1,0-.06,90h0a45,45,0,0,0,0-90Zm32.4,17.07a23.18,23.18,0,0,1-6.19,6,32.63,32.63,0,0,1-5.66,3.06,60.32,60.32,0,0,0-7-14.15,59.14,59.14,0,0,0-7.65-9.33,42.5,42.5,0,0,1,24.3,12.14C1496.22,201.22,1496.93,202,1497.62,202.78Zm-30.14,70.67-1.21.05V245.94a54.9,54.9,0,0,1,17.42,2.9,58.2,58.2,0,0,1-6.7,13.65A53.12,53.12,0,0,1,1467.48,273.45Zm-20.82-24.63a53.49,53.49,0,0,1,17.42-2.89l0,27.57-1.2-.05A57.79,57.79,0,0,1,1446.66,248.82ZM1462.9,188l1.21,0v27.56a54.9,54.9,0,0,1-17.42-2.9,58.2,58.2,0,0,1,6.7-13.65A53.12,53.12,0,0,1,1462.9,188Zm20.82,24.63a55.2,55.2,0,0,1-17.42,2.89V187.93l1.21,0A57.79,57.79,0,0,1,1483.72,212.61Zm-17.42,5.09a56,56,0,0,0,18.09-2.95,56.59,56.59,0,0,1,2.26,14.88l-20.36,0Zm-2.2,0v11.91h-20.36a56.79,56.79,0,0,1,2.28-14.87A56.17,56.17,0,0,0,1464.1,217.7Zm-22.57,11.9h-19.12a42.44,42.44,0,0,1,8.92-25.07c1.61,2.23,5.35,6.36,12.62,9.41A58.6,58.6,0,0,0,1441.53,229.6Zm0,2.2a59.09,59.09,0,0,0,2.41,15.68c-7.27,3-11,7.17-12.62,9.39a42.36,42.36,0,0,1-8.9-25.08Zm2.21,0,20.36,0v11.91a56,56,0,0,0-18.09,3A56.59,56.59,0,0,1,1443.73,231.8Zm22.55,11.93V231.82h20.36a56.79,56.79,0,0,1-2.28,14.87A56.17,56.17,0,0,0,1466.28,243.73Zm22.57-11.9H1508a42.36,42.36,0,0,1-8.93,25.07c-1.6-2.23-5.34-6.36-12.61-9.41A58.6,58.6,0,0,0,1488.85,231.83Zm0-2.2a58.7,58.7,0,0,0-2.4-15.68c7.27-3,11-7.17,12.62-9.39a42.36,42.36,0,0,1,8.9,25.08Zm-53.91-29.19a42.45,42.45,0,0,1,24.31-12.11,59.3,59.3,0,0,0-7.66,9.31,60.7,60.7,0,0,0-7,14.15,33.28,33.28,0,0,1-5.65-3.07,23.16,23.16,0,0,1-6.19-6C1433.48,202,1434.2,201.18,1434.94,200.44Zm-2.18,58.21c1.15-1.7,4.56-5.91,11.85-9a60.22,60.22,0,0,0,7,14.14,59.14,59.14,0,0,0,7.65,9.33,42.47,42.47,0,0,1-24.3-12.14C1434.16,260.21,1433.45,259.44,1432.76,258.65Zm62.68,2.35a42.5,42.5,0,0,1-24.31,12.1,59.3,59.3,0,0,0,7.66-9.31,60.7,60.7,0,0,0,7-14.15,33.28,33.28,0,0,1,5.65,3.07,22.75,22.75,0,0,1,6.18,6C1496.9,259.48,1496.18,260.25,1495.44,261Z" fill="#fff" />
    <polygon points="842.23 241.94 308.43 241.94 308.43 230.37 285.65 243.53 308.43 256.68 308.43 245.11 842.23 245.11 842.23 241.94" fill="#1d81c4" />
    <polygon points="285.54 327.94 819.34 327.94 819.34 339.51 842.12 326.36 819.34 313.2 819.34 324.77 285.54 324.77 285.54 327.94" fill="#1d81c4" />
    <circle cx="1464.96" cy="335.66" r="43.2" fill="#159c80" />
    <path d="M1465.22,290.43a45,45,0,1,0-.06,90h0a45,45,0,1,0,0-90Zm32.4,17.06a23.18,23.18,0,0,1-6.19,6,32.63,32.63,0,0,1-5.66,3.06,60.32,60.32,0,0,0-7-14.15,59.14,59.14,0,0,0-7.65-9.33,42.56,42.56,0,0,1,24.3,12.14C1496.22,305.93,1496.93,306.7,1497.62,307.49Zm-30.14,70.67-1.21,0V350.65a54.9,54.9,0,0,1,17.42,2.9,58.2,58.2,0,0,1-6.7,13.65A53.12,53.12,0,0,1,1467.48,378.16Zm-20.82-24.63a53.49,53.49,0,0,1,17.42-2.89l0,27.57-1.2,0A57.79,57.79,0,0,1,1446.66,353.53Zm16.24-60.84,1.21-.05V320.2a54.9,54.9,0,0,1-17.42-2.9,58.2,58.2,0,0,1,6.7-13.65A53.43,53.43,0,0,1,1462.9,292.69Zm20.82,24.63a54.91,54.91,0,0,1-17.42,2.89V292.64l1.21.05A57.79,57.79,0,0,1,1483.72,317.32Zm-17.42,5.09a56,56,0,0,0,18.09-3,56.59,56.59,0,0,1,2.26,14.88l-20.36,0Zm-2.2,0v11.91h-20.36a56.79,56.79,0,0,1,2.28-14.87A56.17,56.17,0,0,0,1464.1,322.41Zm-22.57,11.9h-19.12a42.44,42.44,0,0,1,8.92-25.07c1.61,2.23,5.35,6.36,12.62,9.41A58.6,58.6,0,0,0,1441.53,334.31Zm0,2.2a59.09,59.09,0,0,0,2.41,15.68c-7.27,3-11,7.17-12.62,9.39a42.36,42.36,0,0,1-8.9-25.08Zm2.21,0h20.36v11.91a56,56,0,0,0-18.09,2.95A56.58,56.58,0,0,1,1443.73,336.52Zm22.55,11.92V336.53h20.36a56.79,56.79,0,0,1-2.28,14.87A56.17,56.17,0,0,0,1466.28,348.44Zm22.57-11.9H1508a42.36,42.36,0,0,1-8.93,25.07c-1.6-2.23-5.34-6.36-12.61-9.41A58.6,58.6,0,0,0,1488.85,336.54Zm0-2.2a58.77,58.77,0,0,0-2.4-15.68c7.27-3,11-7.17,12.62-9.39a42.38,42.38,0,0,1,8.9,25.08Zm-53.91-29.19A42.45,42.45,0,0,1,1459.25,293a59,59,0,0,0-7.66,9.32,60.41,60.41,0,0,0-7,14.14,33.28,33.28,0,0,1-5.65-3.07,23.16,23.16,0,0,1-6.19-6C1433.48,306.66,1434.2,305.89,1434.94,305.15Zm-2.18,58.21c1.15-1.7,4.56-5.91,11.85-9a60,60,0,0,0,7,14.14,59.14,59.14,0,0,0,7.65,9.33,42.47,42.47,0,0,1-24.3-12.14C1434.16,364.92,1433.45,364.15,1432.76,363.36Zm62.68,2.35a42.5,42.5,0,0,1-24.31,12.1,59.3,59.3,0,0,0,7.66-9.31,60.7,60.7,0,0,0,7-14.15,33.28,33.28,0,0,1,5.65,3.07,22.9,22.9,0,0,1,6.18,6C1496.9,364.19,1496.18,365,1495.44,365.71Z" fill="#fff" />
    <polygon points="842.23 353.45 308.43 353.45 308.43 341.88 285.65 355.03 308.43 368.19 308.43 356.62 842.23 356.62 842.23 353.45" fill="#1d81c4" />
    <text transform="translate(769.48 56.21)" font-size="48" fill="#4c5054" font-family="Verdana, Verdana">Cache</text>
    <polygon points="285.54 115.11 1376.97 115.11 1376.97 126.68 1399.75 113.53 1376.97 100.37 1376.97 111.94 285.54 111.94 285.54 115.11" fill="#1d81c4" />
    <polygon points="1399.98 140.62 308.55 140.62 308.55 129.05 285.76 142.2 308.55 155.36 308.55 143.79 1399.98 143.79 1399.98 140.62" fill="#1d81c4" />
    <circle cx="902.9" cy="230.17" r="43.2" fill="#bfe2d9" />
    <path d="M903.15,184.94a45,45,0,0,0,0,90h0a45,45,0,1,0,0-90ZM935.55,202a22.77,22.77,0,0,1-6.18,6,33,33,0,0,1-5.66,3.06,60.32,60.32,0,0,0-7-14.15,58.5,58.5,0,0,0-7.65-9.32,42.48,42.48,0,0,1,24.3,12.13C934.15,200.44,934.87,201.21,935.55,202Zm-30.14,70.67-1.2.05V245.16a54.84,54.84,0,0,1,17.41,2.9,58.22,58.22,0,0,1-6.69,13.65A52.71,52.71,0,0,1,905.41,272.67ZM884.6,248A53.2,53.2,0,0,1,902,245.16l0,27.56-1.21-.05A57.81,57.81,0,0,1,884.6,248Zm16.24-60.84,1.21,0,0,27.57a55.15,55.15,0,0,1-17.41-2.91,58.2,58.2,0,0,1,6.7-13.65A53.75,53.75,0,0,1,900.84,187.2Zm20.81,24.63a54.81,54.81,0,0,1-17.41,2.89V187.16l1.21,0A57.72,57.72,0,0,1,921.65,211.83Zm-17.41,5.09A56,56,0,0,0,922.33,214a56.59,56.59,0,0,1,2.26,14.88H904.23Zm-2.21,0v11.92l-20.36,0A56.79,56.79,0,0,1,884,214,56.1,56.1,0,0,0,902,216.92Zm-22.57,11.9H860.35a42.39,42.39,0,0,1,8.92-25.06c1.6,2.22,5.35,6.35,12.62,9.4A58.59,58.59,0,0,0,879.46,228.82Zm0,2.21a59.08,59.08,0,0,0,2.41,15.67c-7.27,3-11,7.17-12.63,9.39A42.41,42.41,0,0,1,860.35,231Zm2.21,0H902V243a55.92,55.92,0,0,0-18.09,3A56.24,56.24,0,0,1,881.67,231ZM904.22,243V231h20.36a56.94,56.94,0,0,1-2.28,14.88A56.14,56.14,0,0,0,904.22,243Zm22.57-11.9h19.12A42.47,42.47,0,0,1,937,256.13c-1.6-2.22-5.34-6.36-12.61-9.4A59.15,59.15,0,0,0,926.79,231.05Zm0-2.2a58.77,58.77,0,0,0-2.4-15.68c7.27-3,11-7.16,12.62-9.39a42.38,42.38,0,0,1,8.9,25.08Zm-53.91-29.19a42.45,42.45,0,0,1,24.31-12.11,59,59,0,0,0-7.66,9.32,60.41,60.41,0,0,0-7,14.14,32.24,32.24,0,0,1-5.65-3.07,23,23,0,0,1-6.19-6C871.42,201.17,872.13,200.4,872.88,199.66Zm-2.18,58.21c1.15-1.7,4.56-5.91,11.85-9A60.43,60.43,0,0,0,889.49,263a59.7,59.7,0,0,0,7.65,9.33,42.44,42.44,0,0,1-24.29-12.14C872.1,259.44,871.38,258.66,870.7,257.87Zm62.67,2.35a42.45,42.45,0,0,1-24.31,12.11,58.37,58.37,0,0,0,7.66-9.32,60.68,60.68,0,0,0,7-14.15,33.28,33.28,0,0,1,5.65,3.07,23.07,23.07,0,0,1,6.18,6C934.84,258.7,934.12,259.47,933.37,260.22Z" fill="#fff" />
    <circle cx="902.9" cy="341.29" r="43.2" fill="#bfe2d9" />
    <path d="M903.15,296.05a45,45,0,1,0,0,90h0a45,45,0,1,0,0-90Zm32.4,17.07a23.08,23.08,0,0,1-6.18,6,33,33,0,0,1-5.66,3.06,60.32,60.32,0,0,0-7-14.15,59.14,59.14,0,0,0-7.65-9.33,42.5,42.5,0,0,1,24.3,12.14C934.15,311.56,934.87,312.33,935.55,313.12Zm-30.14,70.67-1.2,0V356.27a55.15,55.15,0,0,1,17.41,2.91,58.22,58.22,0,0,1-6.69,13.65A52.71,52.71,0,0,1,905.41,383.79ZM884.6,359.16A53.44,53.44,0,0,1,902,356.27l0,27.57-1.21,0A57.81,57.81,0,0,1,884.6,359.16Zm16.24-60.84,1.21-.05,0,27.56a54.84,54.84,0,0,1-17.41-2.9,58.2,58.2,0,0,1,6.7-13.65A53.12,53.12,0,0,1,900.84,298.32ZM921.65,323a54.78,54.78,0,0,1-17.41,2.88V298.27l1.21.05A57.72,57.72,0,0,1,921.65,323ZM904.24,328a56.28,56.28,0,0,0,18.09-3A56.51,56.51,0,0,1,924.59,340H904.23ZM902,328V340H881.67A56.94,56.94,0,0,1,884,325.06,55.8,55.8,0,0,0,902,328Zm-22.57,11.9H860.35a42.42,42.42,0,0,1,8.92-25.07c1.6,2.23,5.35,6.36,12.62,9.41A58.59,58.59,0,0,0,879.46,339.94Zm0,2.2a59.16,59.16,0,0,0,2.41,15.68c-7.27,3-11,7.17-12.63,9.39a42.44,42.44,0,0,1-8.89-25.08Zm2.21,0H902v11.92A56,56,0,0,0,883.93,357,56.18,56.18,0,0,1,881.67,342.14Zm22.55,11.93V342.16h20.36A56.79,56.79,0,0,1,922.31,357,56.17,56.17,0,0,0,904.22,354.07Zm22.57-11.9h19.12A42.52,42.52,0,0,1,937,367.25c-1.6-2.23-5.34-6.36-12.61-9.41A59,59,0,0,0,926.79,342.17Zm0-2.2a58.7,58.7,0,0,0-2.4-15.68c7.27-3,11-7.17,12.62-9.39a42.36,42.36,0,0,1,8.9,25.08Zm-53.91-29.2a42.5,42.5,0,0,1,24.31-12.1,59.3,59.3,0,0,0-7.66,9.31,60.7,60.7,0,0,0-7,14.15,32.91,32.91,0,0,1-5.65-3.07,23,23,0,0,1-6.19-6C871.42,312.29,872.13,311.52,872.88,310.77ZM870.7,369c1.15-1.7,4.56-5.91,11.85-9a60.63,60.63,0,0,0,6.94,14.14,59.7,59.7,0,0,0,7.65,9.33,42.5,42.5,0,0,1-24.29-12.14C872.1,370.55,871.38,369.78,870.7,369Zm62.67,2.34a42.39,42.39,0,0,1-24.31,12.11,57.91,57.91,0,0,0,7.66-9.32,60.39,60.39,0,0,0,7-14.14,33.28,33.28,0,0,1,5.65,3.07,22.91,22.91,0,0,1,6.18,6C934.84,369.82,934.12,370.59,933.37,371.33Z" fill="#fff" />
    <path d="M242.28,118.18a15.82,15.82,0,1,0-14.61,0c-10.4,3.73-18,15.21-18,28.76a35,35,0,0,0,1.35,9.62l.32,1.15H258.6l.33-1.15a35.36,35.36,0,0,0,1.35-9.62C260.28,133.39,252.68,121.91,242.28,118.18Z" fill="#ffaf10" />
    <text transform="translate(180.36 59.74)" font-size="48" fill="#4c5054" font-family="Verdana, Verdana">User</text>
    <polygon points="91.55 78.71 91.55 373.21 79.98 373.21 93.13 396 106.29 373.21 94.72 373.21 94.72 78.71 91.55 78.71" fill="#606467" />
    <path d="M242.28,223.94a15.82,15.82,0,1,0-14.61,0c-10.4,3.73-18,15.2-18,28.75a34.92,34.92,0,0,0,1.35,9.62l.32,1.15H258.6l.33-1.15a35.3,35.3,0,0,0,1.35-9.62C260.28,239.14,252.68,227.67,242.28,223.94Z" fill="#60bcd8" />
    <path d="M242.28,330.77a15.82,15.82,0,1,0-14.61,0c-10.4,3.74-18,15.21-18,28.76a35,35,0,0,0,1.35,9.62l.32,1.15H258.6l.33-1.15a35.36,35.36,0,0,0,1.35-9.62C260.28,346,252.68,334.51,242.28,330.77Z" fill="#ae75c3" />
  </g>
</svg>